#!OML:ASF E:\Style4\Style4.ASF
:FULLY-SPECIFIED
:DEGREES
2525
root 1.26341 17.9312 -2.38659 5.96978 -11.3629 0.371343
lowerback 21.5694 -0.947908 -2.71883
upperback 13.1198 -1.79112 5.5738
thorax 2.64385 -1.39985 7.93541
lowerneck 1.17309 -13.618 -7.04345
upperneck 19.9148 -22.2089 19.6984
head 9.16164 -9.8225 5.76848
rclavicle 3.89618e-014 -5.1684e-014
rhumerus -34.906 13.2463 -87.6427
rradius 82.2506
rwrist 25.2958
rhand 1.47364 0.366388
rfingers 7.12502
rthumb 27.0011 -27.7238
lclavicle 3.89618e-014 -5.1684e-014
lhumerus -44.937 -20.8633 99.478
lradius 72.6475
lwrist 10.196
lhand -15.2237 33.957
lfingers 7.12502
lthumb 10.949 63.6515
rfemur -24.5484 10.8817 13.6757
rtibia 25.4678
rfoot -8.12719 -8.49774
rtoes -14.1968
lfemur -23.3541 -1.62977 -22.666
ltibia 29.8009
lfoot -16.5416 18.2405
ltoes -4.45009
2526
root 1.24056 17.9338 -2.38933 6.10141 -11.517 0.111973
lowerback 21.6172 -0.982649 -2.83029
upperback 13.1586 -1.8598 5.39381
thorax 2.67009 -1.43617 7.81341
lowerneck 1.36382 -13.6324 -7.04723
upperneck 19.4304 -22.1041 19.6106
head 8.92611 -9.82887 5.76074
rclavicle 1.66979e-014 -2.94201e-014
rhumerus -34.8571 13.3551 -87.9006
rradius 81.8266
rwrist 24.985
rhand 1.02527 0.799966
rfingers 7.12502
rthumb 26.572 -27.356
lclavicle 1.66979e-014 -2.94201e-014
lhumerus -45.2722 -20.7845 99.3039
lradius 73.0044
lwrist 9.87136
lhand -15.7875 34.0047
lfingers 7.12502
lthumb 10.4051 63.7273
rfemur -24.5396 10.8573 14.0538
rtibia 25.2366
rfoot -7.97697 -8.30508
rtoes -14.2505
lfemur -23.5238 -1.61815 -22.2877
ltibia 29.9913
lfoot -16.6623 18.371
ltoes -4.4425
2527
root 1.21537 17.9388 -2.39217 6.24862 -11.6718 -0.153637
lowerback 21.7717 -0.998619 -3.21504
upperback 13.0996 -1.9469 5.35941
thorax 2.56082 -1.49997 8.02366
lowerneck 1.63131 -13.5766 -7.24278
upperneck 19.0565 -21.892 19.3884
head 8.7033 -9.80133 5.75877
rclavicle 2.46493e-014 -3.65764e-014
rhumerus -34.9458 13.7913 -88.0168
rradius 81.4959
rwrist 24.6404
rhand 0.847369 1.14478
rfingers 7.12502
rthumb 26.4018 -27.0368
lclavicle 2.46493e-014 -3.65764e-014
lhumerus -45.704 -20.2892 99.3015
lradius 73.3487
lwrist 9.46878
lhand -16.3123 34.0844
lfingers 7.12502
lthumb 9.89888 63.8317
rfemur -24.5583 10.8234 14.4441
rtibia 25.026
rfoot -7.81879 -8.10424
rtoes -14.463
lfemur -23.6974 -1.57452 -21.8959
ltibia 30.1721
lfoot -16.7717 18.4571
ltoes -4.50649
2528
root 1.18803 17.9415 -2.39372 6.37832 -11.8101 -0.34013
lowerback 21.9584 -0.980447 -3.67593
upperback 13.0481 -2.00496 5.31007
thorax 2.44438 -1.55233 8.25857
lowerneck 1.72909 -13.5692 -7.35609
upperneck 18.759 -21.7537 19.0948
head 8.53371 -9.78913 5.6979
rclavicle -4.37326e-014 2.38542e-014
rhumerus -35.007 14.2188 -88.1141
rradius 81.2598
rwrist 24.29
rhand 0.730736 1.33794
rfingers 7.12502
rthumb 26.2901 -26.8604
lclavicle -4.37326e-014 2.38542e-014
lhumerus -46.0577 -19.8925 99.2667
lradius 73.7
lwrist 9.12958
lhand -16.7557 34.3081
lfingers 7.12502
lthumb 9.47111 64.0753
rfemur -24.5567 10.7528 14.759
rtibia 24.8146
rfoot -7.75872 -7.86195
rtoes -14.5276
lfemur -23.8681 -1.52618 -21.5866
ltibia 30.3515
lfoot -16.8849 18.5061
ltoes -4.0782
2529
root 1.15895 17.9421 -2.39685 6.47942 -11.8986 -0.530645
lowerback 22.0033 -0.96414 -3.81604
upperback 13.1137 -2.01388 5.07062
thorax 2.49042 -1.55812 8.07474
lowerneck 1.76883 -13.6432 -7.13663
upperneck 18.3301 -21.736 18.919
head 8.32919 -9.81073 5.60783
rclavicle -4.81059e-014 3.4191e-014
rhumerus -34.8829 14.1986 -88.4325
rradius 80.942
rwrist 23.9816
rhand 0.454737 1.51356
rfingers 7.12502
rthumb 26.0259 -26.7239
lclavicle -4.81059e-014 3.4191e-014
lhumerus -46.2629 -19.9546 98.9471
lradius 73.9859
lwrist 8.87833
lhand -17.0142 34.4563
lfingers 7.12502
lthumb 9.22166 64.2346
rfemur -24.5263 10.7874 15.0658
rtibia 24.6115
rfoot -7.69405 -7.74482
rtoes -14.2073
lfemur -24.0051 -1.54867 -21.2478
ltibia 30.5078
lfoot -17.0935 18.4807
ltoes -3.01263
2530
root 1.12939 17.9433 -2.40165 6.58051 -11.9577 -0.826433
lowerback 22.0836 -0.937942 -3.81959
upperback 13.1785 -1.98631 4.87053
thorax 2.50656 -1.5379 7.85016
lowerneck 1.81958 -13.741 -7.02149
upperneck 17.9064 -21.7606 18.7915
head 8.15053 -9.85562 5.54568
rclavicle 5.36719e-014 -6.20208e-014
rhumerus -34.7164 14.1294 -88.6871
rradius 80.5358
rwrist 23.611
rhand 0.194869 1.79127
rfingers 7.12502
rthumb 25.777 -26.4825
lclavicle 5.36719e-014 -6.20208e-014
lhumerus -46.4578 -20.0726 98.6469
lradius 74.1868
lwrist 8.66036
lhand -17.3606 34.2046
lfingers 7.12502
lthumb 8.88735 63.9974
rfemur -24.4897 10.8242 15.493
rtibia 24.4255
rfoot -7.57546 -7.66251
rtoes -13.9441
lfemur -24.1258 -1.60591 -20.7907
ltibia 30.6448
lfoot -17.2207 18.5526
ltoes -2.66515
2531
root 1.09992 17.9473 -2.40367 6.66982 -12.0034 -1.01731
lowerback 22.44 -0.85663 -4.27611
upperback 13.0513 -1.96462 4.91056
thorax 2.21432 -1.54445 8.17601
lowerneck 1.87859 -13.8111 -7.25121
upperneck 17.6726 -21.7306 18.4334
head 8.03587 -9.89365 5.46609
rclavicle -2.98177e-014 3.97569e-016
rhumerus -34.8 14.4916 -88.6034
rradius 80.2102
rwrist 23.2878
rhand -0.0295746 2.08057
rfingers 7.12502
rthumb 25.562 -26.2243
lclavicle -2.98177e-014 3.97569e-016
lhumerus -46.8517 -19.7286 98.7662
lradius 74.3885
lwrist 8.32433
lhand -17.7807 34.0043
lfingers 7.12502
lthumb 8.48194 63.8139
rfemur -24.4419 10.7116 15.8305
rtibia 24.2452
rfoot -7.5069 -7.4548
rtoes -13.9516
lfemur -24.2253 -1.62934 -20.4684
ltibia 30.7792
lfoot -17.2486 18.6244
ltoes -2.67956
2532
root 1.06674 17.949 -2.40462 6.73785 -12.0366 -1.08548
lowerback 23.0569 -0.739202 -5.26457
upperback 12.7475 -1.99899 5.12782
thorax 1.65274 -1.6004 9.04456
lowerneck 1.99934 -13.7854 -7.52756
upperneck 17.5288 -21.513 17.7094
head 7.8725 -9.86181 5.30473
rclavicle -8.34896e-015 4.73108e-014
rhumerus -35.1211 15.353 -88.3935
rradius 79.8649
rwrist 22.9118
rhand -0.439501 2.21368
rfingers 7.12502
rthumb 25.1693 -26.1469
lclavicle -8.34896e-015 4.73108e-014
lhumerus -47.4594 -18.8099 99.1727
lradius 74.6261
lwrist 7.80637
lhand -18.0906 33.9904
lfingers 7.12502
lthumb 8.18291 63.812
rfemur -24.4013 10.6462 16.0289
rtibia 24.0701
rfoot -7.4799 -7.29626
rtoes -14.017
lfemur -24.3239 -1.72661 -20.2504
ltibia 30.9376
lfoot -17.4393 18.6255
ltoes -1.91729
2533
root 1.02863 17.9475 -2.40949 6.7782 -12.0248 -1.2487
lowerback 22.4965 -0.765851 -4.75443
upperback 13.1552 -1.94155 4.48129
thorax 2.30152 -1.54823 7.97139
lowerneck 2.11843 -13.9337 -7.04826
upperneck 16.7678 -21.6531 18.0723
head 7.61124 -9.93982 5.34666
rclavicle -5.36719e-015 4.6118e-014
rhumerus -34.5193 14.5412 -89.1061
rradius 79.4071
rwrist 22.7191
rhand -0.762226 2.3312
rfingers 7.12502
rthumb 24.8601 -26.0724
lclavicle -5.36719e-015 4.6118e-014
lhumerus -47.29 -19.7167 98.1838
lradius 74.8091
lwrist 7.62832
lhand -18.4085 33.5987
lfingers 7.12502
lthumb 7.87609 63.432
rfemur -24.3076 10.6759 16.348
rtibia 23.8844
rfoot -7.40229 -7.28284
rtoes -13.7411
lfemur -24.4291 -1.75954 -19.9101
ltibia 31.138
lfoot -17.5865 18.5865
ltoes -1.69015
2534
root 0.99434 17.9462 -2.41548 6.88277 -12.0793 -1.49579
lowerback 23.2443 -0.648902 -5.71349
upperback 12.7879 -1.98123 4.75907
thorax 1.60853 -1.60048 8.89649
lowerneck 2.2029 -13.8916 -7.35536
upperneck 16.7808 -21.4313 17.243
head 7.50009 -9.89861 5.15632
rclavicle -2.88238e-014 -1.0138e-014
rhumerus -34.8486 15.5218 -88.9249
rradius 79.1306
rwrist 22.478
rhand -0.678954 2.46265
rfingers 7.12502
rthumb 24.9399 -25.9299
lclavicle -2.88238e-014 -1.0138e-014
lhumerus -47.9366 -18.544 98.4617
lradius 75.0233
lwrist 7.07963
lhand -18.5421 33.2073
lfingers 7.12502
lthumb 7.74713 63.0454
rfemur -24.2701 10.6822 16.7365
rtibia 23.6936
rfoot -7.34502 -7.15998
rtoes -13.1655
lfemur -24.6185 -1.65267 -19.5315
ltibia 31.3767
lfoot -17.4637 18.7271
ltoes -2.88659
2535
root 0.960858 17.948 -2.41638 7.08244 -12.3606 -1.81612
lowerback 23.2706 -0.495099 -6.00988
upperback 12.7295 -1.84435 4.65611
thorax 1.51399 -1.5381 8.92888
lowerneck 2.20932 -13.9662 -7.32388
upperneck 16.6228 -21.4262 16.8339
head 7.39362 -9.92675 5.02221
rclavicle 1.77912e-014 -5.30755e-014
rhumerus -34.778 15.723 -89.0703
rradius 78.7916
rwrist 22.3163
rhand -0.468468 2.57722
rfingers 7.12502
rthumb 25.1416 -25.7872
lclavicle 1.77912e-014 -5.30755e-014
lhumerus -48.2148 -18.2736 98.2488
lradius 75.2185
lwrist 6.67334
lhand -18.3481 33.0808
lfingers 7.12502
lthumb 7.93439 62.9119
rfemur -24.3269 10.6384 17.2062
rtibia 23.4756
rfoot -7.22655 -6.74721
rtoes -13.3646
lfemur -24.8685 -1.3955 -19.1135
ltibia 31.6601
lfoot -17.4299 18.9742
ltoes -4.11627
